# xmcd
#
# Track frame offsets: 
#        150
#        10428
#        25220
#        38517
#        50192
#        66197
#        79864
#        95050
#        106993
#        121567
#        133724
#        146314
#        160144
#        172064
#        184667
#        197429
#        210505
#        221653
#        234915
#        248353
#        260741
#        275008
#        288405
#        301447
#        313970
#
# Disc length: 4365 seconds
#
# Revision: 0
# Processed by: cddbd v1.5.2PL0 Copyright (c) Steve Scherf et al.
# Submitted via: ExactAudioCopy v1.0b3
#
DISCID=69110b19
DTITLE=Golden Gate Quartet - Milestones Of Legends CD5
DYEAR=1900
DGENRE=Gospel
TTITLE0=The General Jumped At Dawn
TTITLE1=I Will Be Home Again
TTITLE2=Bones Bones Bones (Ezekial In The Valley)
TTITLE3=God's Gonna Cut 'em Down
TTITLE4=Swing Down Chariot
TTITLE5=No Restricted Signs (Up In Heaven)
TTITLE6=Atom And Evil
TTITLE7=Shadrack
TTITLE8=Hush!
TTITLE9=Joshua Fit The Battle Of Jericho
TTITLE10=Wade In The Water
TTITLE11=Pray For The Lights To Go Out
TTITLE12=High Low And Wide
TTITLE13=Do Unto Others
TTITLE14=Brrodle-Oo, Broodle-Oo
TTITLE15=Abdullah
TTITLE16=Fare You Well, Fare You Well
TTITLE17=She's Gonna Runin You Buddy
TTITLE18=I'm Just A Dreamer
TTITLE19=Talking Jerusalem To Death
TTITLE20=Mene, Mene. Tekel
TTITLE21=Jesus Met The Woman At The Well
TTITLE22=Mary, Mary
TTITLE23=John Saw The Wheel
TTITLE24=Lord I Am Tired And I Want To Go Home
EXTD=
EXTT0=
EXTT1=
EXTT2=
EXTT3=
EXTT4=
EXTT5=
EXTT6=
EXTT7=
EXTT8=
EXTT9=
EXTT10=
EXTT11=
EXTT12=
EXTT13=
EXTT14=
EXTT15=
EXTT16=
EXTT17=
EXTT18=
EXTT19=
EXTT20=
EXTT21=
EXTT22=
EXTT23=
EXTT24=
PLAYORDER=
